<svg width="29" height="33" viewBox="0 0 29 33" fill="none" xmlns="http://www.w3.org/2000/svg">
<path d="M11.9294 17.496C12.4663 18.3097 13.1511 18.983 13.9376 19.4702C14.7241 19.9574 15.5938 20.2471 16.4878 20.3197C17.3817 20.3923 18.2789 20.2461 19.1186 19.8909C19.9583 19.5358 20.7208 18.98 21.3544 18.2613L25.1045 14.0095C26.2429 12.673 26.8729 10.8829 26.8587 9.02487C26.8444 7.16682 26.1871 5.38946 25.0283 4.07557C23.8695 2.76169 22.3019 2.01641 20.6632 2.00027C19.0245 1.98412 17.4457 2.6984 16.2669 3.98925L14.1169 6.41281M16.9294 14.6614C16.3926 13.8477 15.7078 13.1744 14.9213 12.6872C14.1348 12.2 13.2651 11.9103 12.3711 11.8377C11.4772 11.7651 10.58 11.9114 9.74027 12.2665C8.90057 12.6217 8.13806 13.1774 7.50445 13.8961L3.75445 18.148C2.61596 19.4845 1.986 21.2745 2.00024 23.1326C2.01448 24.9906 2.67178 26.768 3.83058 28.0819C4.98938 29.3958 6.55696 30.141 8.19569 30.1572C9.83442 30.1733 11.4132 29.4591 12.5919 28.1682L14.7294 25.7446" stroke="#698474" stroke-width="4" stroke-linecap="round" stroke-linejoin="round"/>
</svg>
